<svg xmlns="http://www.w3.org/2000/svg" viewBox="0 0 120.55 150.72"><defs><style>.cls-1{fill:#fff;}</style></defs><title>bp-logo-ko</title><g id="Layer_2" data-name="Layer 2"><g id="Layer_1-2" data-name="Layer 1"><path class="cls-1" d="M27.37,63.67l1.51,4.85h-1l-6,1.87-.81.56-1.51-4.85,1.08-2,4.68-1.45Zm-5,2.3-.47.45-.1.64.22.73.15.07,3.95-1.23.12-.22L26,65.75l-.45-.48-.64-.1Z"/><path class="cls-1" d="M26.31,56.57l.55,5-1-.18-6.26.69-.89.39-.54-4.87,2.12-1-.24,1.06.23,2,.12.08.81-.09.11-.13-.09-.75L20.89,58l2.43-.27-.19.9.08.76.13.1,1.1-.12.16-.19-.22-2L23.84,56Z"/><path class="cls-1" d="M26.75,50l-.53,5.05-.9-.39L19.06,54l-1,.19.53-5,1.79-1.45,4.87.51Zm-5.53.13-.61.23-.35.55-.08.75.11.13,4.11.43.19-.15.08-.7-.23-.61-.55-.35Z"/><path class="cls-1" d="M27.21,47.72l-.82-.53-6.07-1.68-1,0,.76-2.76.82.53L27,45l1,0Z"/><path class="cls-1" d="M30.23,39.51l-1.33,3-2.16.83-4.47-2-.83-2.16,1.28-2.87,2.51.24-1,1.09-.32.73,0,.78.41.5,2.24,1,.65,0,.6-.5.37-.83.15-1.47Z"/><path class="cls-1" d="M33.29,34.87l-.69-.64L31.93,34l-.16,0-1.13,1.56,0,.16.47.56.82.44L30.4,38.89,29.91,38l-4.3-5.1-.72-.3,2.31-3.22.52.58,6.21,2.45,1,.17Zm-5.61-2.69-.36-.2.29.29,1.7,1.94.16,0,.62-.85,0-.17Z"/><path class="cls-1" d="M34.35,24.72l-.66.63v.16L37,29.09l1.13.61-2.25,2.11-.54-1.17L32,27.06h-.16l-.66.62-.61,1.13-1-2.24L33.35,23l2.17,1.16Z"/><path class="cls-1" d="M43.52,25.89,39.29,28.7,39,27.76l-3.48-5.25-.76-.62,4.08-2.71,1.84,1.44-1.05.28L38,22l0,.15.46.68.16,0,.63-.42.57-.73,1.35,2.05-.89.24-.63.42,0,.16.61.92.24,0,1.64-1.08.79-1Z"/><path class="cls-1" d="M49.3,23.37l-4.72,1.86-.07-1L42.2,18.4l-.62-.76,4.72-1.87,2.12.92,1.8,4.56Zm-2.66-4.84-.49-.44L45.5,18l-.7.27-.07.16,1.52,3.85.23.1.65-.26.44-.49,0-.65Z"/><path class="cls-1" d="M59.35,15.38l-.9.06-.11.13.34,4.88.5,1.19-3.08.22.32-1.25-.35-4.88L56,15.62l-.91.06-1.18.5.61-2.38,5.18-.37.94,2.27Z"/><path class="cls-1" d="M65.83,22.12l-3.59-.43L60.92,20l.6-5.1,1.68-1.32,3.6.42,1.32,1.68-.6,5.1Zm-.14-5.72-.18-.49-.43-.28-.58-.07-.49.18-.29.43-.36,3,.18.49L64,20l.58.07.49-.18.28-.43Z"/><path class="cls-1" d="M77.68,19.46l-.84-.35-.15.06-1.93,4.5L74.66,25l-2.84-1.21.85-1,1.92-4.5-.06-.16-.83-.35-1.28-.1,1.64-1.84,4.77,2-.2,2.46Z"/><path class="cls-1" d="M79.38,27.77l.76-.61,1.32-1.93,0-.16-1.16-.78-.16,0-1.32,1.93-.28.93L76.2,25.61,77,25l3.54-5.21.29-.93,2.31,1.57-.76.61-1,1.44,0,.17,1.16.78.16,0,1-1.44L84,21l2.32,1.58-.77.6L82,28.41l-.29.94Z"/><path class="cls-1" d="M85.94,33.68l-3.53-3.63.87-.44,4.52-4.39.46-.86,3.41,3.52L90.6,29.94l-.47-1-1.4-1.44h-.14l-.59.57v.16l.53.55.81.42L87.59,31l-.4-.83-.53-.55H86.5l-.8.77v.25L87.06,32l1.15.6Z"/><path class="cls-1" d="M90.9,41.66l-1.53-2.89.68-2.2,4.33-2.3,2.2.68,1.48,2.78-1.74,1.82-.25-1.45-.37-.7-.64-.46-.65,0L92.25,38.1l-.38.54,0,.78.43.8,1.07,1Z"/><path class="cls-1" d="M92.76,47.31l2.29-1.55,0-.26-.17-.62-.15-.08-1.63.46-.81.53-.76-2.69,1,0,6.06-1.69.82-.53,1.37,4.88-1,1.87-2.19.61-1.29-.73-1.92,1.39-.89.91Zm5.38-1.57.38-.35.1-.51-.27-1-.14-.09-1.4.4-.08.14.26,1,.35.38.51.1Z"/><path class="cls-1" d="M93.71,54.73l.94.07.69-.21.11-.12-.09-1.93-.12-.11-.71-.14-.93.17-.13-2.68,1,.42L101,51.51l.75-.21.19,4-.77-.14-6.38,2-.91.51Zm6.06-1.38.41-.08-.41,0-2.53-.46-.11.12.05,1,.12.11Z"/><path class="cls-1" d="M99.28,63.26l.28-1.94-.1-.13-.92-.13-.14.1-.1.75.16.91L96,62.47l.41-.82.11-.75-.1-.14-2.08-.29-1.09.2.4-2.83.88.42,6.24.89,1-.16-.69,4.85-2.3.41Z"/><path class="cls-1" d="M97.29,69.81l.28-.87-.07-.15-4.65-1.52H91.56l1-2.94,1,.77,4.65,1.52.15-.07.28-.86V64.42l2,1.47L99,70.81l-2.45,0Z"/><path class="cls-1" d="M14.92,103.38H1.8L2.54,101V85.1L1.8,82.74H14.92L18.16,86v4L16,92.18l2.51,2.5v5.16ZM12.27,88.49l-.45-.88-.88-.44H8.43l-.29.29v2.65l.29.3h2.51l.88-.44.45-.89Zm.15,7.81L12,95.42l-1.18-.59H8.43l-.29.3v3.24l.44.44h2.21L12,98.22l.45-.88Z"/><path class="cls-1" d="M31,103.38l.29-2.36-.44-1.77L30.55,99H25.68l-.29.29L24.94,101l.3,2.36H18.46L19.64,101l4.12-16.36-.44-1.92h10l-.45,1.92L37,101l1.18,2.36ZM28.25,87.9l-.15-1-.15,1-1.47,6.34.29.3h2.65l.3-.3Z"/><path class="cls-1" d="M51.62,103.38H39.53l.74-2.36V85.1l-.74-2.36h7.38L46,85.4V97.93l.44.44h4.13l3-1Z"/><path class="cls-1" d="M66.36,103.38H54.27L55,101V85.1l-.74-2.36h7.37l-.88,2.66V97.93l.44.44h4.13l3-1Z"/><path class="cls-1" d="M80.22,103.38l.29-2.36-.44-1.77-.3-.29H74.91l-.29.29L74.17,101l.3,2.36H67.69L68.87,101,73,84.66l-.44-1.92h10l-.45,1.92L86.26,101l1.18,2.36ZM77.48,87.9l-.15-1-.15,1-1.47,6.34.29.3h2.66l.29-.3Z"/><path class="cls-1" d="M98.7,87.46H94.51l-.88.44-.44.89v.59l.59.59,4.57,1,2.8,2.8v5.75l-3.83,3.83h-8.7l-2-6,3.1,1h4.22l.88-.44.44-.89V95.86l-.74-.73-4.56-1-2.66-2.65V86.58l3.84-3.84h8.25l1.86,5.6Z"/><path class="cls-1" d="M115.68,87.61h-2.3l-.29.29v12.38l1,3.1h-7.81l1-3.1V87.9l-.3-.29h-2.3l-3.06,1,2-5.9h13.12l2,5.9Z"/><path class="cls-1" d="M33.25,120.67h-5.9l-.29.29v4l.88,2.65H20.72l.74-2.35V109.31L20.72,107H33.54l3.84,3.83v5.75Zm-1.62-7.23L31,112.26l-1.18-.59H27.35l-.29.3v3.68l.29.3h2.51l1.18-.59.59-1.18Z"/><path class="cls-1" d="M52.41,127.59H43.27l-3.83-3.83v-13L43.27,107h9.14l3.84,3.83v13Zm-2.06-14.3-.59-1.17-1.18-.59H47.11l-1.18.59-.59,1.17V121l.59,1.18,1.18.59h1.47l1.18-.59.59-1.18Z"/><path class="cls-1" d="M58.67,127.59l.74-2.35V109.31L58.67,107h7.22l-.74,2.35v15.93l.74,2.35Z"/><path class="cls-1" d="M85.12,109.31v18.28h-4l-6.49-10.9-.59-1.48.15,1.48v8.55l.74,2.35H68.46l.74-2.35V109.31L68.32,107h6.33l5.16,8.69.59,1.48-.14-1.48v-6.34L79.52,107h6.34Z"/><path class="cls-1" d="M100.83,111.82h-2.3l-.29.3V124.5l1,3.09H91.46l1-3.09V112.12l-.29-.3H89.89l-3.06,1,2-5.89h13.11l2,5.89Z"/><path class="cls-1" d="M83,62.45l-2.56-2.59a.3.3,0,0,0-.41,0,1.9,1.9,0,0,1-1.25.45,2.53,2.53,0,0,1-1.89-.86c-.43-.62-3-4.68-5.4-8.56h1.66v.35a.33.33,0,0,0,.33.33h1.16a.34.34,0,0,0,.34-.33V50.15h1.22v.09a.33.33,0,0,0,.33.33h.89a.33.33,0,0,0,.33-.33v-.85h2.65a.63.63,0,0,0,.5.45L82,50h.1a.55.55,0,0,0,.56-.54c0-.11.08-1.2.08-2.23a15,15,0,0,0-.08-1.78.55.55,0,0,0-.56-.52H82l-1.12.18a.61.61,0,0,0-.5.45H77.74v-.85a.34.34,0,0,0-.33-.34h-.89a.34.34,0,0,0-.33.34v.09H75V43.73a.34.34,0,0,0-.34-.34H73.47a.34.34,0,0,0-.33.34v.35H70.78a.34.34,0,0,0-.34.34v.14s0,.19-.31.2H67.67l-.55-.89-.46-.74c-.92-1.47-1.3-2.08-1.3-2.87a4.72,4.72,0,0,0-4-4.66V33.19a.27.27,0,0,0-.28-.25H59.25a.26.26,0,0,0-.28.25v2.67a4.73,4.73,0,0,0-3,4.41c0,.61-.59,1.83-1.76,3.6a.83.83,0,0,1-.61.45c-.25,0-.46-.25-.59-.45s-.31-.49-.49-.79l.05,0,.86-.53a.36.36,0,0,0,.17-.23.36.36,0,0,0,0-.23l.55-.44a.38.38,0,0,0,.05-.46l-.46-.74a.36.36,0,0,0-.32-.18.2.2,0,0,0-.11,0l-.66.27a.38.38,0,0,0-.46-.06l-.87.54,0,0s0-.06,0-.06a.72.72,0,0,0-.59-.36L48.34,37a.33.33,0,0,0-.23-.17.37.37,0,0,0-.29.05l-.82.5a.39.39,0,0,0-.12.52l2.17,3.54-.28.17L46.58,38a.33.33,0,0,0-.23-.17.37.37,0,0,0-.29,0l-.82.5a.38.38,0,0,0-.12.52l2.19,3.57-.36.23a.71.71,0,0,0-.34.47.74.74,0,0,0,.09.58l.21.34-.47.29a.38.38,0,0,0-.16.23.37.37,0,0,0,0,.29l.51.82a.37.37,0,0,0,.32.17.35.35,0,0,0,.2,0l.46-.28c.75,1.23,1.65,2.69,1.83,3s.11.44.1.46.06-.05-.08,0-.48.31-.62.38-.23,0-.33-.18-.77-1.24-.88-1.43h0a.76.76,0,0,0-.65-.36.71.71,0,0,0-.4.11L46,48,44.1,44.91a.38.38,0,0,0-.23-.18.42.42,0,0,0-.29.05l-1.33.83a.37.37,0,0,0-.12.52L44,49.21l-.22.14a.78.78,0,0,0-.34.47.74.74,0,0,0,.09.58c.51.82,1.87,3,2,3.21h0c.14.27.2.41.12.55l-1.15,1.49a0,0,0,0,1,0,0s-.59-.83-.69-1l-.07-.1.4-.25a.37.37,0,0,0,.17-.24.34.34,0,0,0,0-.22l.36-.34a.38.38,0,0,0,0-.46l-.46-.74a.36.36,0,0,0-.32-.18.25.25,0,0,0-.12,0l-.46.17a.36.36,0,0,0-.47-.06l-.56.35a.68.68,0,0,0-.38-.12.54.54,0,0,0-.28.08l-.07,0-2.13-3.46a.33.33,0,0,0-.23-.17.42.42,0,0,0-.29,0l-.82.51a.38.38,0,0,0-.12.52l2.12,3.46-.52.32a.59.59,0,0,0-.26.47.84.84,0,0,0,.12.48l-.72.44a.37.37,0,0,0-.17.24.42.42,0,0,0,0,.29l.51.81a.36.36,0,0,0,.32.18.46.46,0,0,0,.2-.05l.75-.47L42.8,60c.09.14.1.22.09.24s-.06,0-.1.06a3.18,3.18,0,0,1-1.55-.49.28.28,0,0,0-.39,0l-2.57,2.59a.3.3,0,0,0-.08.21.3.3,0,0,0,.08.2A31.62,31.62,0,0,0,52.53,71l0,.17A1.28,1.28,0,0,0,53,72.47a12.49,12.49,0,0,1,2.48,2.46l.06.07a1.8,1.8,0,0,0,1.21.65l.2,0a1.79,1.79,0,0,0,1.12-.39.24.24,0,0,0,.08-.06,12.57,12.57,0,0,1,3-1.86,1.25,1.25,0,0,0,.75-1.13V72A31.6,31.6,0,0,0,83,62.87.29.29,0,0,0,83,62.45ZM78.76,46.08h1.78a.17.17,0,0,0,.17-.15,1.4,1.4,0,0,0,0-.21.27.27,0,0,1,.23-.26l1.12-.17a.22.22,0,0,1,.28.21s0,.26,0,.37-.08.14-.15.16-1,.08-1,.08-.06,0-.06.09v.2c0,.05,0,.08.06.08h1a.23.23,0,0,1,.17.17,3.08,3.08,0,0,1,0,.73c0,.18-.16.17-.23.17h-.91a.08.08,0,0,0-.08.08s0,1.13,0,1.25A.13.13,0,0,1,81,49h-.08a.28.28,0,0,1-.23-.26v-1a.17.17,0,0,0-.17-.19H79.39a.35.35,0,0,1-.26-.14c-.06-.11-.11-.22-.16-.33a.11.11,0,0,1,.12-.14h1.45c.14,0,.17-.09.17-.18v-.16c0-.06-.06-.1-.15-.1H78.89a.23.23,0,0,1-.21-.13c0-.07-.05-.13-.07-.19S78.59,46.06,78.76,46.08Zm-3-.59h.75a.15.15,0,0,0,.16-.15c0-.12,0-.52,0-.52a.09.09,0,0,1,.09-.09h.31a.09.09,0,0,1,.09.09v4.81a.09.09,0,0,1-.09.08h-.31a.09.09,0,0,1-.09-.08v-2h-.23a.33.33,0,0,1-.25-.17,5.27,5.27,0,0,1-.33-.74.13.13,0,0,1,.13-.15h.47c.16,0,.21-.06.21-.14v-.15c0-.08,0-.12-.13-.12s-.61,0-.68,0A.25.25,0,0,1,75.7,46a3.4,3.4,0,0,1-.06-.39A.14.14,0,0,1,75.79,45.49ZM46.56,40.38l-.93-1.51a.08.08,0,0,1,0-.11l.61-.38s.08,0,.1,0l.94,1.51s0,.1,0,.11l-.61.38S46.58,40.43,46.56,40.38Zm1.53,1-.61.38s-.07,0-.1,0l-.3-.48s0-.1,0-.12l.61-.37s.07,0,.1,0l.3.49S48.13,41.36,48.09,41.38Zm-2.85,7-.56.35s-.09,0-.14-.11L42.92,46c0-.07-.06-.14,0-.16l.56-.35s.09,0,.13.11l1.62,2.63C45.25,48.3,45.27,48.38,45.24,48.39ZM40.53,53s-.07,0-.12-.12l-1.69-2.75c0-.08-.08-.15-.06-.16l.34-.21s.07,0,.12.12l1.69,2.75c0,.08.07.15.06.16ZM73,64.72a7,7,0,0,0,1.48-4.33.39.39,0,0,1,0-.23s.2.08.34.31c.26.4.92,1.46,1.33,2.11a.31.31,0,0,1-.1.5A23.75,23.75,0,0,1,73,64.89l-.2.08Zm-.81-4.33a4.77,4.77,0,1,1-4.76-4.76A4.77,4.77,0,0,1,72.19,60.39Zm-5-7.67a6.48,6.48,0,0,0,.52-2.52h.7c1,1.51,1.94,3.08,2.38,3.76a.91.91,0,0,1,.1.23.48.48,0,0,1-.17,0,6.77,6.77,0,0,0-3.28-.81h0c-.15,0-.25,0-.29-.09A.68.68,0,0,1,67.17,52.72Zm-2-7.23h5.61a.21.21,0,0,0,.22-.2c0-.08,0-.47,0-.47a.08.08,0,0,1,.08-.09h.31s1.84,0,2.05,0,.2-.08.21-.21,0-.44,0-.44,0-.1.08-.1h.62s.08.06.08.13v.76c0,.08,0,.14-.08.14H74.2a.11.11,0,0,0-.12.11s0,.36,0,.57,0,.19.1.19h.2s.08.13.08.29V47.9c0,.16,0,.29-.08.29h-.15a.17.17,0,0,0-.16.18c0,.1,0,2.13,0,2.13s0,.1-.08.1h-.31s-.08,0-.08-.1V47.9c0-.15-.1-.2-.15-.2s-1.36,0-1.85,0a.16.16,0,0,0-.18.18v1.78a.09.09,0,0,1-.08.08H71a.08.08,0,0,1-.08-.08V48a.22.22,0,0,0-.19-.2h-5a.44.44,0,0,1-.34-.19,5.36,5.36,0,0,1-.31-.65.15.15,0,0,1,.14-.2c1,0,5.32,0,5.48,0s.19-.11.21-.17v-.28c0-.08,0-.15-.2-.15H65.17a.33.33,0,0,1-.3-.2,2.32,2.32,0,0,1,0-.24C64.84,45.52,65,45.49,65.13,45.49Zm-.94,4.91a.4.4,0,0,1,.32-.2h.75a4.64,4.64,0,0,1-4.46,4.48l.52-3.83,2.36-.12A.65.65,0,0,0,64.19,50.4Zm-1.13-5.55c.24,0,.16.47,0,.47L61,45.26c-.4,0-.33,0-.35.33s0,.46.23.5,1.73.06,2,.06.27,0,.27.31v1.06c0,.14-.1.25-.69.22-.39,0-1.26,0-1.49,0s-.27.18-.25.66,0,1.19,0,1.51-.53.22-.55,0c0,0-.12-1.65-.09-3.08a16,16,0,0,1,.09-1.81c0-.17,0-.37.24-.38S62.83,44.85,63.06,44.85ZM59.42,37V33.57c0-.06,0-.11.08-.11h1.25a.1.1,0,0,1,.09.11V35.3c0,.07,0,.12-.09.12h-.82s-.15,0-.15.12v.6c0,.06,0,.16.14.16h.83a.1.1,0,0,1,.09.11V37a.1.1,0,0,1-.09.11H60c-.08,0-.18,0-.18.16v5.14a.08.08,0,0,1-.09.08H59.5a.08.08,0,0,1-.08-.08ZM58,46l-.64,7.45A4.95,4.95,0,0,1,58,46Zm-6.47-4.64.56-.32s.12-.13.26.07l0,.07.75-.43c.08,0,.26.3.32.38s.08.1,0,.14a4.23,4.23,0,0,1-.87.57.65.65,0,0,1-.52-.12C51.93,41.62,51.43,41.46,51.57,41.38ZM50.52,54c.49-.79,1.72-2.72,2.78-4.41a.86.86,0,0,1,.25-.29.39.39,0,0,1,.06.23c0,.18,0,.37,0,.56a6.75,6.75,0,0,0,.52,2.66c.12.29.12.47.07.54s-.14.08-.28.08h-.19a6.73,6.73,0,0,0-3.12.8.37.37,0,0,1-.18,0A.84.84,0,0,1,50.52,54ZM48.3,39.34l-.94-1.52s0-.09,0-.11l.61-.38s.08,0,.1.05L49,38.89S49,39,49,39l-.61.38S48.33,39.38,48.3,39.34Zm.93,1.37s-.08,0-.11-.05l-.3-.48a.09.09,0,0,1,0-.12l.61-.37s.07,0,.1,0l.3.49s0,.09,0,.11Zm-2.94,7.8c.18-.09.66-.4.66-.4a.35.35,0,0,1,.19-.06c.13,0,.17,0,.32.18a1.92,1.92,0,0,1,.4.8,2.26,2.26,0,0,1-.32.22c-.2.1-.65-.25-.73-.29S46.11,48.6,46.29,48.51ZM45.08,62.57l1.33-2.1c.15-.23.29-.31.35-.32a.45.45,0,0,1,0,.24,7,7,0,0,0,1.49,4.32,2.89,2.89,0,0,1,.16.25.91.91,0,0,1-.2-.08,25.77,25.77,0,0,1-3.07-1.8A.33.33,0,0,1,45.08,62.57Zm-2.36-9c-.22-.07-.66-.21-.52-.29l.56-.32c.05,0,.11-.12.24.06l.75-.28c.08,0,.22.22.28.3s.08.1,0,.15a4.45,4.45,0,0,1-.88.49A1.28,1.28,0,0,1,42.72,53.59ZM39.14,63c-.17-.13-.23-.2-.09-.36.51-.52,1.74-1.79,2-1.94s.26-.2.45-.09a.21.21,0,0,1,.1.31c-.08.12-1.39,1.45-2.06,2.13C39.3,63.25,39.2,63,39.14,63Zm13.24,6.25a.07.07,0,0,1,0,.06l-.05,0h0a31.91,31.91,0,0,1-11.18-6,.07.07,0,0,1,0-.07.11.11,0,0,1,0-.07l.44-.43a.1.1,0,0,1,.13,0,30.49,30.49,0,0,0,10.83,5.75.09.09,0,0,1,.07.11ZM49,60.14A4.64,4.64,0,0,1,57.1,57l-.37,4.39A4.14,4.14,0,0,1,54.58,64a2.73,2.73,0,0,0-.92.75A4.65,4.65,0,0,1,49,60.14ZM54.6,66l-1.14,5.91a1.22,1.22,0,0,0,0,.26.82.82,0,0,1-.28-.83l1.14-5.92c.07-.37.37-.61.88-.91a4.28,4.28,0,0,0,2.24-2.8h0l1.48-17.32.33.24L57.71,62.32a4,4,0,0,1-2.07,2.55A1.82,1.82,0,0,0,54.6,66Zm1.12,3.07a2.61,2.61,0,0,1,2.17-4h.29a2.67,2.67,0,0,1,1.17.43c.16.11.1.2-.09.14a2.36,2.36,0,0,0-.58-.15,2.58,2.58,0,0,0-.39,0,2.55,2.55,0,0,0-2.59,2.41A2.64,2.64,0,0,0,55.86,69C56,69.22,55.83,69.25,55.72,69.08ZM57,72.9a.61.61,0,0,1-.53-.67.61.61,0,0,1,.6-.53h.07a.58.58,0,0,1,.4.22.58.58,0,0,1,.12.44A.6.6,0,0,1,57,72.9Zm3.21-4.57A1.82,1.82,0,0,1,58.39,70h-.2a1.82,1.82,0,0,1-.95-.39c-.09-.08,0-.15.09-.12a1.75,1.75,0,0,0,.33.06l.21,0a1.92,1.92,0,0,0,1.9-1.71,1.87,1.87,0,0,0-.05-.67c0-.15.08-.2.17-.07A1.79,1.79,0,0,1,60.21,68.33Zm1-3.53a5.58,5.58,0,0,1-1-1.32,6.89,6.89,0,0,0,.45-1.2,7.15,7.15,0,0,0,5.37,5,25.82,25.82,0,0,1-4,.49L62,66.2A1.91,1.91,0,0,0,61.22,64.8Zm20-2.37a30,30,0,0,1-19.11,7.92h0a.09.09,0,0,1-.09-.1v0l0-.59a.09.09,0,0,1,.09-.09,29.1,29.1,0,0,0,18.52-7.73.11.11,0,0,1,.14,0l.44.47a.11.11,0,0,1,0,.07A.16.16,0,0,1,81.19,62.43Z"/><polygon class="cls-1" points="88.11 137.7 88.04 137.96 87.25 140.26 87.33 140.36 88.38 140.46 88.47 140.38 88.13 137.97 88.11 137.7"/><polygon class="cls-1" points="83.26 137.46 82.21 137.38 82.11 137.46 82 138.94 82.08 139.04 83.13 139.12 83.58 138.93 83.78 138.6 83.83 138.07 83.68 137.71 83.26 137.46"/><polygon class="cls-1" points="69.99 136.73 69.29 136.71 68.93 136.88 68.75 137.22 68.66 140.11 68.82 140.47 69.17 140.65 69.86 140.68 70.22 140.51 70.41 140.17 70.5 137.28 70.33 136.92 69.99 136.73"/><polygon class="cls-1" points="28.55 138.5 28.09 138.34 27.04 138.46 26.96 138.56 27.14 140.03 27.23 140.11 28.28 139.99 28.69 139.72 28.82 139.36 28.76 138.83 28.55 138.5"/><path class="cls-1" d="M119.78,135.51a.21.21,0,0,0-.15-.15,151.73,151.73,0,0,0-16-3.59.86.86,0,0,0-1,.71l-.37,2.1a283.15,283.15,0,0,0-41.95-3,283.11,283.11,0,0,0-41.94,3l-.37-2.1a.87.87,0,0,0-.36-.57.89.89,0,0,0-.65-.14,151.16,151.16,0,0,0-16,3.59.21.21,0,0,0-.15.15.22.22,0,0,0,0,.21L5,141.8l-3.18,8.6a.26.26,0,0,0,.05.25.28.28,0,0,0,.17.07l.08,0a87.39,87.39,0,0,1,12.24-3.34l.33,1.79a.63.63,0,0,0,.74.52A260.4,260.4,0,0,1,60.27,146a260.43,260.43,0,0,1,44.88,3.69h.12a.63.63,0,0,0,.62-.53l.32-1.79a87.13,87.13,0,0,1,12.25,3.34l.08,0a.24.24,0,0,0,.16-.07.24.24,0,0,0,.06-.25l-3.18-8.6,4.17-6.08A.2.2,0,0,0,119.78,135.51ZM23.49,144l-3.47.5.07-.72-.67-4.69-.27-.67,3.48-.49,1.09.81.16,1.18-.55.74.84.63.21,1.52Zm5.7-.7-1-2.18-.18-.07-.66.08-.07.1.18,1.56.25.68-1.65.19.09-.72-.54-4.7-.26-.68,3.57-.41,1.17.92.17,1.49-.84,1.07.85,1.71.58.77Zm6.49-.64L32.1,143l.11-.72-.43-4.71-.24-.68,3.49-.32.55,1.27-.81-.19-1.57.14-.08.1.1,1,.1.08.74-.07.63-.27.14,1.48-.67-.16-.75.07-.08.1.14,1.44.14.11,1.53-.14.89-.39Zm7.58-6-1.19,5.53-.9.06-1.24-3.56-.06-.3,0,.31-.73,3.7-.9.06-1.95-5.31-.4-.68,1.75-.12,0,.71.87,2.4.07.34,0-.35.65-3.21,1.14-.08,1.09,3.09.07.35,0-.36.53-2.49-.14-.7,1.66-.11Zm1.53,5.38.14-.71-.24-4.73-.21-.69,1.66-.08-.14.71.24,4.73.21.69Zm6.59-.27-2-3.7-.19-.44.06.44.1,3.07.2.69-1.49.05.15-.71L48,136.46l-.24-.69,1.71-.06,1.63,3,.19.43-.06-.44-.07-2.36-.2-.69,1.49,0-.16.7.18,5.43Zm7.31-1.8.1.53-1.13,1.15-2.2,0-1.15-1.13-.05-3.77,1.22-1.25,2.45,0,.5,1.45-.9-.3h-1.2l-.44.23-.22.44,0,2.68.18.35.35.17h.88l.26-.27,0-1.23-.36-.7,1.93,0-.25.53Zm7,1.71-2.29,0-1.21-1.24.05-3.68,1.24-1.22,2.19,0,.47,1.45-.9-.31-.94,0-.44.22-.23.43,0,2.55.22.44.43.22,1,0,.93-.3Zm6.1-1-1.17,1.1-2.28-.07-1.1-1.18.12-3.85,1.17-1.1,2.28.07,1.1,1.17Zm7.29-3.94-.25,4.73.13.71-1.62-.09.22-.69.17-3.15.06-.35-.15.34L76,141.64h0l-1.3-3.49-.12-.36,0,.35-.17,3.16.14.71L73,141.92l.21-.7.26-4.72-.14-.71,1.71.09,1.07,2.84,0,.2,0-.2L77.59,136l1.71.1ZM82,140.17l-.09.09-.1,1.31.15.89-1.71-.13.23-.69.36-4.72-.12-.71,3.59.27,1,1.13-.13,1.58-1.31,1.13ZM88.61,143l.16-.69-.11-.72-.08-.09-1.66-.16-.09.08-.25.68,0,.7L85,142.69l.42-.67,1.77-4.71-.08-.58,2.36.22-.18.56.84,5,.28.73Zm7.81-4.59-.65,5.4-1.13-.13-1.43-4-.12-.45v.44l-.36,3.05.09.72-1.49-.18.26-.68.57-4.7-.13-.73,1.7.21,1.15,3.23.12.46v-.44l.29-2.36-.09-.71,1.48.18Zm5.61.8L100.17,142l-.24,1.69.14.82-1.82-.27.37-.74.24-1.61-1.13-3.22-.37-.77,1.73.26v.62l.58,1.77,0,.18.07-.17,1.07-1.53.17-.59,1.61.23Z"/><polygon class="cls-1" points="22.41 140.16 22.53 139.78 22.5 139.52 22.27 139.2 21.9 139.08 20.86 139.22 20.78 139.32 20.94 140.45 21.04 140.53 22.09 140.38 22.41 140.16"/><polygon class="cls-1" points="22.61 141.59 22.15 141.43 21.19 141.57 21.12 141.67 21.32 143.1 21.47 143.21 22.38 143.08 22.78 142.81 22.91 142.43 22.84 141.91 22.61 141.59"/><path class="cls-1" d="M32.17,55.39a28.11,28.11,0,1,1,43,23.8h3a29.82,29.82,0,1,0-35.87,0h3A28.1,28.1,0,0,1,32.17,55.39Z"/><path class="cls-1" d="M116.62,117.69h-5.06a3.3,3.3,0,0,0,.45-.48l.13-.22H115a.56.56,0,0,0,0-1.12h-2.39a.49.49,0,0,0,0-.11l.51-1.16a.24.24,0,0,0,0-.23.24.24,0,0,0-.21-.08l-1.25.16a3.42,3.42,0,0,0-1.16.37l.1-.22a.24.24,0,0,0,0-.23.24.24,0,0,0-.21-.08l-1.25.16a3.3,3.3,0,0,0-1.15.37l.09-.22a.22.22,0,0,0-.24-.31l-1.25.16a3.58,3.58,0,0,0-1.84.82,5.32,5.32,0,0,0-1.17,1.72,1.24,1.24,0,0,0-.1.2l-.34.94a1,1,0,0,0,0,.24l.35.93a.84.84,0,0,0,.08.19,5.44,5.44,0,0,0,1.18,1.73,3.58,3.58,0,0,0,1.84.82l1.25.16h0a.28.28,0,0,0,.19-.09.27.27,0,0,0,0-.23l-.09-.22a3.3,3.3,0,0,0,1.15.37l1.25.16h0a.23.23,0,0,0,.21-.32l-.1-.22a3.42,3.42,0,0,0,1.16.37l1.25.16h0a.23.23,0,0,0,.21-.32l-.51-1.16a.49.49,0,0,0,0-.11H115a.56.56,0,0,0,0-1.12h-2.86a2.32,2.32,0,0,0-.14-.23,2.67,2.67,0,0,0-.44-.46h5.06a.56.56,0,0,0,0-1.12Zm-7.14-.25a4.8,4.8,0,0,1,1-1.45,2.64,2.64,0,0,1,1.36-.61l-.23.58a5.39,5.39,0,0,1-.32.72,2.22,2.22,0,0,1-1.8.84Zm-4.15,3.06a4.8,4.8,0,0,1-1-1.45.21.21,0,0,1,0-.07,2.18,2.18,0,0,1,1.79.83,4.34,4.34,0,0,1,.32.72c.07.18.15.38.24.58A2.7,2.7,0,0,1,105.33,120.5Zm1.13-4.54a4.34,4.34,0,0,1-.32.72,2.22,2.22,0,0,1-1.79.84.19.19,0,0,1,0-.08,4.8,4.8,0,0,1,1-1.45,2.7,2.7,0,0,1,1.37-.61C106.61,115.58,106.53,115.78,106.46,116Zm1.42,4.54a4.8,4.8,0,0,1-.95-1.45l0-.07a2.19,2.19,0,0,1,1.8.83,4.34,4.34,0,0,1,.32.72l.23.58A2.68,2.68,0,0,1,107.88,120.5ZM109,116a4.34,4.34,0,0,1-.32.72,2.22,2.22,0,0,1-1.8.84l0-.08a4.8,4.8,0,0,1,.95-1.45,2.68,2.68,0,0,1,1.36-.61Zm2.78,5.15a2.64,2.64,0,0,1-1.36-.61,4.8,4.8,0,0,1-1-1.45l0-.07a2.19,2.19,0,0,1,1.8.83,5.39,5.39,0,0,1,.32.72Z"/><path class="cls-1" d="M4.29,118.8H9.35a3.3,3.3,0,0,0-.45.48l-.13.22H5.91a.56.56,0,1,0,0,1.12H8.3a.54.54,0,0,1-.05.11l-.5,1.16a.24.24,0,0,0,0,.23.27.27,0,0,0,.21.09L9.24,122a3.93,3.93,0,0,0,1.16-.37l-.1.22a.24.24,0,0,0,0,.23.27.27,0,0,0,.21.09l1.25-.17a3.66,3.66,0,0,0,1.16-.37l-.1.22a.24.24,0,0,0,0,.23.26.26,0,0,0,.21.09l1.25-.17a3.58,3.58,0,0,0,1.84-.82,5.32,5.32,0,0,0,1.17-1.72,1.24,1.24,0,0,0,.1-.2l.34-.93a1,1,0,0,0,0-.25l-.35-.93a.84.84,0,0,0-.08-.19,5.44,5.44,0,0,0-1.18-1.73,3.58,3.58,0,0,0-1.84-.82l-1.25-.16h0a.23.23,0,0,0-.21.32l.1.22a3.42,3.42,0,0,0-1.16-.37l-1.25-.16h0a.23.23,0,0,0-.21.32l.1.22a3.42,3.42,0,0,0-1.16-.37L8,114.29H8a.23.23,0,0,0-.21.32l.51,1.16s0,.07,0,.11H5.91a.56.56,0,1,0,0,1.12H8.77a2.32,2.32,0,0,0,.14.23,2.61,2.61,0,0,0,.43.46h-5a.56.56,0,1,0,0,1.12Zm7.14.25a4.8,4.8,0,0,1-.95,1.45,2.64,2.64,0,0,1-1.36.61l.23-.58a4.34,4.34,0,0,1,.32-.72,2.22,2.22,0,0,1,1.8-.84A.59.59,0,0,1,11.43,119.05ZM15.58,116a4.8,4.8,0,0,1,1,1.45.21.21,0,0,1,0,.07,2.18,2.18,0,0,1-1.79-.83,4.34,4.34,0,0,1-.32-.72c-.07-.18-.15-.38-.24-.58A2.7,2.7,0,0,1,15.58,116Zm-1.13,4.54a4.34,4.34,0,0,1,.32-.72,2.22,2.22,0,0,1,1.79-.84.19.19,0,0,1,0,.08,4.8,4.8,0,0,1-1,1.45,2.7,2.7,0,0,1-1.37.61C14.3,120.91,14.38,120.71,14.45,120.53ZM13,116a4.8,4.8,0,0,1,1,1.45.21.21,0,0,1,0,.07,2.18,2.18,0,0,1-1.79-.83,4.34,4.34,0,0,1-.32-.72l-.23-.58A2.68,2.68,0,0,1,13,116Zm-1.13,4.54a4.34,4.34,0,0,1,.32-.72A2.22,2.22,0,0,1,14,119a.19.19,0,0,1,0,.08,4.8,4.8,0,0,1-1,1.45,2.68,2.68,0,0,1-1.36.61Zm-2.78-5.15a2.64,2.64,0,0,1,1.36.61,4.8,4.8,0,0,1,.95,1.45l0,.07a2.19,2.19,0,0,1-1.8-.83,4.34,4.34,0,0,1-.32-.72Z"/><path class="cls-1" d="M101.45,76.76c-.42.82-.82,1.54-1.22,2.21h20.32l-.68-2.21h-8.59l0-.25a4.26,4.26,0,0,0,0-1.18l0-.12.09-.07a4.52,4.52,0,0,0,1.48-4.34l0-.11.08-.08A4.51,4.51,0,0,0,114,66.16l0-.11.07-.09a4.56,4.56,0,0,0,.7-4.53l0-.11.07-.09a4.55,4.55,0,0,0,.3-4.57l0-.1,0-.1a4.54,4.54,0,0,0-.1-4.58l-.07-.1,0-.11a4.52,4.52,0,0,0-.49-4.55l-.07-.09,0-.11a4.54,4.54,0,0,0-.89-4.49l-.08-.08,0-.12a4.52,4.52,0,0,0-1.28-4.39l-.09-.08,0-.11a4.51,4.51,0,0,0-1.66-4.27l-.09-.07v-.12a4.52,4.52,0,0,0-2-4.11l-.1-.06V28.9A4.51,4.51,0,0,0,105.9,25l-.1,0v-.12a4.53,4.53,0,0,0-2.71-3.69l-.1,0,0-.12a4.5,4.5,0,0,0-3-3.44l-.11,0,0-.12a4.55,4.55,0,0,0-3.31-3.17l-.11,0-.05-.11a4.49,4.49,0,0,0-3.56-2.86l-.12,0,0-.1a4.53,4.53,0,0,0-3.81-2.55h-.11l-.06-.1a4.54,4.54,0,0,0-4-2.2h-.11l-.07-.09a4.56,4.56,0,0,0-3.67-1.88,4.41,4.41,0,0,0-.52,0l-.12,0L80,4.24A4.61,4.61,0,0,0,76.6,2.67a4.53,4.53,0,0,0-.91.1l-.11,0-.08-.08a4.61,4.61,0,0,0-3.18-1.28,4.43,4.43,0,0,0-1.27.18l-.11,0-.09-.07A4.6,4.6,0,0,0,68,.57a4.38,4.38,0,0,0-1.66.32l-.1,0-.1-.07a4.65,4.65,0,0,0-4.57-.3l-.1.06L61.34.57A4.55,4.55,0,0,0,59.13,0a4.47,4.47,0,0,0-2.36.67l-.1.07-.1-.05A4.6,4.6,0,0,0,52,1.18l-.09.07-.11,0a4.58,4.58,0,0,0-4.49.89l-.08.08-.12,0a4.61,4.61,0,0,0-4.39,1.28l-.08.09-.12,0a4.59,4.59,0,0,0-4.27,1.66l-.07.09h-.11a4.56,4.56,0,0,0-4.1,2l-.07.1H33.8a4.52,4.52,0,0,0-3.92,2.37l-.05.11h-.12A4.53,4.53,0,0,0,26,12.58l-.05.1-.11,0a4.51,4.51,0,0,0-3.44,3l0,.11-.12,0a4.5,4.5,0,0,0-3.16,3.3l0,.12-.11,0a4.52,4.52,0,0,0-2.86,3.57l0,.12-.1.05a4.53,4.53,0,0,0-2.55,3.8V27l-.09.06a4.54,4.54,0,0,0-2.2,4v.12l-.09.07A4.52,4.52,0,0,0,9.2,35.44l0,.11-.09.08A4.54,4.54,0,0,0,7.66,40l0,.11-.08.09a4.52,4.52,0,0,0-1.1,4.44l0,.11-.07.09a4.54,4.54,0,0,0-.7,4.53l0,.11-.07.09a4.55,4.55,0,0,0-.3,4.57l0,.1,0,.1a4.54,4.54,0,0,0,.1,4.58l.06.1,0,.1a4.56,4.56,0,0,0,.5,4.56l.07.09,0,.11A4.5,4.5,0,0,0,7,68.34l.08.09,0,.11a4.54,4.54,0,0,0,1.28,4.39l.09.08,0,.12a4.58,4.58,0,0,0,.75,3.29l.24.34H.68L0,79H20.31c-.39-.67-.79-1.39-1.21-2.21L19,76.64a45.86,45.86,0,0,1-5.16-21.25,46.42,46.42,0,1,1,92.83,0,45.75,45.75,0,0,1-5.17,21.25Zm8.5-.22h-1.31a3.43,3.43,0,0,1-.16-1,3.73,3.73,0,0,1,.64-2c.13.28.27.55.4.8a7,7,0,0,1,.46,1A2.92,2.92,0,0,1,110,76.54Zm1-2.87a.27.27,0,0,0-.06-.1,6.85,6.85,0,0,1-.85-2.33,3.69,3.69,0,0,1,.47-2.08c.15.26.31.52.46.75a6.82,6.82,0,0,1,.55,1A3.13,3.13,0,0,1,111,73.67Zm1.4-4.48-.06-.11a6.53,6.53,0,0,1-1-2.24,3.62,3.62,0,0,1,.28-2.12c.17.26.35.5.52.72a6.08,6.08,0,0,1,.63.93A3.15,3.15,0,0,1,112.36,69.19Zm1-4.6-.07-.09a6.52,6.52,0,0,1-1.25-2.14,3.71,3.71,0,0,1,.1-2.14c.19.24.4.46.58.67a5.66,5.66,0,0,1,.71.87A3.15,3.15,0,0,1,113.37,64.59Zm.6-4.66-.08-.09a6.67,6.67,0,0,1-1.43-2,3.7,3.7,0,0,1-.09-2.14c.21.22.44.43.64.62a5.51,5.51,0,0,1,.78.8A3.12,3.12,0,0,1,114,59.93Zm.19-4.7-.09-.08a6.77,6.77,0,0,1-1.6-1.89,3.65,3.65,0,0,1-.27-2.12c.23.2.47.38.69.56a6.07,6.07,0,0,1,.85.73A3.15,3.15,0,0,1,114.16,55.23Zm-.22-4.69-.09-.08a6.48,6.48,0,0,1-1.76-1.74,3.67,3.67,0,0,1-.46-2.09c.25.18.5.34.74.5a5.94,5.94,0,0,1,.91.65A3.15,3.15,0,0,1,113.94,50.54Zm-.63-4.66-.09-.07a6.78,6.78,0,0,1-1.91-1.58,3.68,3.68,0,0,1-.64-2c.27.16.53.3.78.43a5.72,5.72,0,0,1,1,.57A3.12,3.12,0,0,1,113.31,45.88Zm-2.16-7.18a3.1,3.1,0,0,1,1.13,2.59l-.1,0a6.71,6.71,0,0,1-2-1.42,3.73,3.73,0,0,1-.82-2l.81.36A5,5,0,0,1,111.15,38.7Zm-1.65-4.38a3.18,3.18,0,0,1,1.36,2.49l-.11,0a6.86,6.86,0,0,1-2.15-1.23,3.84,3.84,0,0,1-1-1.9l.85.28A6,6,0,0,1,109.5,34.32Zm-2-4.21A3.14,3.14,0,0,1,109,32.47l-.1,0a6.75,6.75,0,0,1-2.25-1,3.7,3.7,0,0,1-1.15-1.8l.86.21A6.11,6.11,0,0,1,107.48,30.11Zm-2.38-4a3.17,3.17,0,0,1,1.77,2.22l-.12,0a6.53,6.53,0,0,1-2.33-.83,3.81,3.81,0,0,1-1.3-1.7l.88.13A7.45,7.45,0,0,1,105.1,26.09Zm-2.72-3.79a3.11,3.11,0,0,1,1.94,2.05l-.11,0a6.45,6.45,0,0,1-2.4-.63,3.71,3.71,0,0,1-1.44-1.57l.89.06A5.64,5.64,0,0,1,102.38,22.3Zm-3-3.54a3.11,3.11,0,0,1,2.12,1.87h-.11a6.69,6.69,0,0,1-2.44-.42,3.75,3.75,0,0,1-1.58-1.44l.89,0A6.35,6.35,0,0,1,99.33,18.76ZM96,15.49a3.16,3.16,0,0,1,2.28,1.68h-.12A6.72,6.72,0,0,1,95.68,17,3.64,3.64,0,0,1,94,15.67l.88-.1A6.54,6.54,0,0,1,96,15.49Zm-3.61-3A3.18,3.18,0,0,1,94.8,14h-.12a6.47,6.47,0,0,1-2.48,0,3.67,3.67,0,0,1-1.8-1.15l.87-.17A5.62,5.62,0,0,1,92.38,12.53ZM88.52,9.89a3.18,3.18,0,0,1,2.54,1.27l-.12,0a6.77,6.77,0,0,1-2.46.23,3.74,3.74,0,0,1-1.9-1l.85-.25A6.7,6.7,0,0,1,88.52,9.89ZM84.45,7.61a3.09,3.09,0,0,1,2.63,1l-.11,0a6.83,6.83,0,0,1-2.43.44,3.8,3.8,0,0,1-2-.82L83.39,8A5.92,5.92,0,0,1,84.45,7.61ZM80.19,5.68a3.17,3.17,0,0,1,2.72.8l-.11,0a6.89,6.89,0,0,1-2.39.65,3.81,3.81,0,0,1-2-.64c.28-.13.55-.27.8-.4A7,7,0,0,1,80.19,5.68Zm-4.4-1.55a3.18,3.18,0,0,1,2.77.56l-.11.06a6.75,6.75,0,0,1-2.32.86,3.71,3.71,0,0,1-2.08-.47l.76-.46A5.53,5.53,0,0,1,75.79,4.13Zm-5.46-.52A6.08,6.08,0,0,1,71.26,3a3.13,3.13,0,0,1,2.81.32L74,3.36a6.66,6.66,0,0,1-2.25,1.05,3.64,3.64,0,0,1-2.11-.28Zm-4.55-.68a6.18,6.18,0,0,1,.87-.71,3.15,3.15,0,0,1,2.83.07l-.09.07a6.81,6.81,0,0,1-2.14,1.25,3.7,3.7,0,0,1-2.14-.1C65.35,3.32,65.57,3.12,65.78,2.93Zm-4.59-.28a5.51,5.51,0,0,1,.8-.78,3.12,3.12,0,0,1,2.83-.18l-.09.08a6.67,6.67,0,0,1-2,1.43,3.79,3.79,0,0,1-2.14.09Zm-4.6.12a6.07,6.07,0,0,1,.73-.85,3.15,3.15,0,0,1,2.8-.42L60,1.59a6.77,6.77,0,0,1-1.89,1.6A3.73,3.73,0,0,1,56,3.46C56.23,3.23,56.42,3,56.59,2.77ZM52,3.29a7.31,7.31,0,0,1,.66-.91,3.14,3.14,0,0,1,2.75-.66l-.07.09a6.78,6.78,0,0,1-1.74,1.76A3.77,3.77,0,0,1,51.52,4C51.7,3.78,51.86,3.53,52,3.29Zm-4.5.92a5.9,5.9,0,0,1,.57-1,3.15,3.15,0,0,1,2.69-.89l-.07.09a6.78,6.78,0,0,1-1.58,1.91,3.76,3.76,0,0,1-2,.64C47.24,4.73,47.38,4.46,47.51,4.21ZM43.09,5.52a6.86,6.86,0,0,1,.49-1,3.15,3.15,0,0,1,2.6-1.13.31.31,0,0,0,0,.1,6.87,6.87,0,0,1-1.41,2,3.79,3.79,0,0,1-2,.82C42.87,6.05,43,5.77,43.09,5.52ZM38.81,7.2a7.65,7.65,0,0,1,.4-1A3.16,3.16,0,0,1,41.7,4.8a.54.54,0,0,1-.05.11,6.73,6.73,0,0,1-1.22,2.15,3.84,3.84,0,0,1-1.9,1C38.63,7.76,38.73,7.47,38.81,7.2ZM34.7,9.26A6.11,6.11,0,0,1,35,8.18a3.12,3.12,0,0,1,2.36-1.56.42.42,0,0,1,0,.1,6.54,6.54,0,0,1-1,2.25,3.7,3.7,0,0,1-1.8,1.15C34.57,9.82,34.63,9.53,34.7,9.26Zm-3.93,2.4a6.15,6.15,0,0,1,.22-1.1A3.1,3.1,0,0,1,33.2,8.8l0,.11a6.73,6.73,0,0,1-.83,2.33,3.81,3.81,0,0,1-1.7,1.3C30.69,12.24,30.74,11.94,30.77,11.66Zm-3.7,2.74a6.33,6.33,0,0,1,.12-1.12,3.14,3.14,0,0,1,2-1.95s0,.08,0,.12a6.6,6.6,0,0,1-.64,2.39A3.74,3.74,0,0,1,27,15.29C27.05,15,27.06,14.68,27.07,14.4Zm-3.42,1.93a3.12,3.12,0,0,1,1.87-2.13v.12a7.14,7.14,0,0,1-.42,2.44,3.83,3.83,0,0,1-1.45,1.58c0-.31,0-.61,0-.89A5.5,5.5,0,0,1,23.65,16.33Zm-3.27,3.34a3.14,3.14,0,0,1,1.68-2.28.49.49,0,0,0,0,.12A6.72,6.72,0,0,1,21.86,20a3.7,3.7,0,0,1-1.3,1.69c0-.31-.06-.61-.09-.88A5.82,5.82,0,0,1,20.38,19.67Zm-1.48,1.2s0,.07,0,.11a6.67,6.67,0,0,1,0,2.48,3.73,3.73,0,0,1-1.14,1.8c-.06-.3-.12-.6-.18-.87a5.62,5.62,0,0,1-.18-1.11A3.11,3.11,0,0,1,18.9,20.87ZM16.05,24.6a.5.5,0,0,0,0,.12,6.33,6.33,0,0,1,.22,2.46,3.73,3.73,0,0,1-1,1.9c-.08-.3-.17-.59-.25-.86a6.39,6.39,0,0,1-.28-1.08A3.18,3.18,0,0,1,16.05,24.6Zm-2.52,4s0,.08,0,.11A6.69,6.69,0,0,1,14,31.12a3.75,3.75,0,0,1-.81,2l-.32-.83a5.21,5.21,0,0,1-.37-1.06A3.11,3.11,0,0,1,13.53,28.57Zm-2.16,4.18.05.11a6.83,6.83,0,0,1,.65,2.39,3.81,3.81,0,0,1-.64,2l-.4-.8a6.54,6.54,0,0,1-.46-1A3.12,3.12,0,0,1,11.37,32.75ZM9.58,37.1l.06.1a6.88,6.88,0,0,1,.86,2.33A3.78,3.78,0,0,1,10,41.61l-.46-.76a5.77,5.77,0,0,1-.56-1A3.15,3.15,0,0,1,9.58,37.1ZM8.19,41.58l.06.11A6.57,6.57,0,0,1,9.3,43.92,3.68,3.68,0,0,1,9,46c-.17-.25-.35-.49-.52-.71a6.08,6.08,0,0,1-.63-.93A3.12,3.12,0,0,1,8.19,41.58Zm-1,4.6.07.09A6.81,6.81,0,0,1,8.5,48.41a3.67,3.67,0,0,1-.1,2.13c-.19-.23-.39-.45-.58-.66A6.18,6.18,0,0,1,7.11,49,3.15,3.15,0,0,1,7.18,46.18Zm-.6,4.66.08.09a6.55,6.55,0,0,1,1.43,2,3.79,3.79,0,0,1,.09,2.14l-.64-.62a5.69,5.69,0,0,1-.79-.81A3.13,3.13,0,0,1,6.58,50.84Zm-.19,4.7.08.08a6.45,6.45,0,0,1,1.6,1.89,3.66,3.66,0,0,1,.28,2.12c-.23-.2-.47-.39-.69-.56a5.52,5.52,0,0,1-.85-.73A3.15,3.15,0,0,1,6.39,55.54Zm.22,4.7.09.07a6.63,6.63,0,0,1,1.76,1.74,3.67,3.67,0,0,1,.46,2.08l-.74-.49A6.5,6.5,0,0,1,7.27,63,3.14,3.14,0,0,1,6.61,60.24Zm.62,4.65.1.06a6.81,6.81,0,0,1,1.91,1.59,3.85,3.85,0,0,1,.64,2c-.27-.16-.53-.3-.78-.43a5.81,5.81,0,0,1-1-.58A3.14,3.14,0,0,1,7.23,64.89Zm1,4.59.11,0a6.84,6.84,0,0,1,2,1.42,3.59,3.59,0,0,1,.82,2l-.81-.36a5.29,5.29,0,0,1-1-.49A3.15,3.15,0,0,1,8.26,69.48Zm3,7.06-.2-.09A3.16,3.16,0,0,1,9.69,74l.11,0A6.86,6.86,0,0,1,12,75.23a3.91,3.91,0,0,1,.82,1.31Zm93.11-.09a48.2,48.2,0,0,0,4.79-21.06,48.87,48.87,0,1,0-97.73,0,48.34,48.34,0,0,0,4.78,21.06l.15.31H14.23l0-.17a5.85,5.85,0,0,0-.24-.74,5.2,5.2,0,0,0-1-1.54,4.11,4.11,0,0,0-.3-.29L12.53,74l0-.12a5.15,5.15,0,0,0-.21-2.09,5.29,5.29,0,0,0-.88-1.63,4.12,4.12,0,0,0-.28-.31l-.08-.08,0-.12a4.92,4.92,0,0,0,0-2.1,5.24,5.24,0,0,0-.74-1.7,2.85,2.85,0,0,0-.25-.33L10,65.38l0-.12a5,5,0,0,0,.16-2.09,5.38,5.38,0,0,0-.59-1.76,2.56,2.56,0,0,0-.22-.35L9.35,61l.05-.11a4.9,4.9,0,0,0,.34-2.08A5.26,5.26,0,0,0,9.31,57c-.06-.12-.12-.25-.19-.37l0-.1,0-.1a5.22,5.22,0,0,0,.52-2,5.34,5.34,0,0,0-.27-1.84c0-.12-.1-.25-.16-.38L9.16,52l.06-.1a4.83,4.83,0,0,0,.7-2A5.23,5.23,0,0,0,9.8,48.1a2.62,2.62,0,0,0-.11-.4l0-.11.08-.09a4.86,4.86,0,0,0,.86-1.92,5,5,0,0,0,.05-1.85,2.57,2.57,0,0,0-.08-.4l0-.12.08-.09a4.81,4.81,0,0,0,1-1.83,4.94,4.94,0,0,0,.2-1.84,2.85,2.85,0,0,0,0-.42l0-.11.09-.08A5,5,0,0,0,13,37.1a5.27,5.27,0,0,0,.37-1.82,2.84,2.84,0,0,0,0-.41v-.12l.09-.07a4.87,4.87,0,0,0,1.34-1.63,5.26,5.26,0,0,0,.52-1.77,2.93,2.93,0,0,0,0-.41v-.12l.09-.07a4.92,4.92,0,0,0,1.47-1.51,5.2,5.2,0,0,0,.68-1.72,2.9,2.9,0,0,0,.06-.41v-.12l.11-.05a4.86,4.86,0,0,0,1.59-1.37,5,5,0,0,0,.83-1.66,2.88,2.88,0,0,0,.09-.4l0-.12.11-.05a4.76,4.76,0,0,0,1.71-1.22,5.22,5.22,0,0,0,1-1.58,3,3,0,0,0,.13-.39l0-.12.11,0a4.87,4.87,0,0,0,1.82-1.08,5.29,5.29,0,0,0,1.1-1.49c.06-.12.11-.25.16-.38l.05-.11.11,0a4.76,4.76,0,0,0,1.89-.91,5.12,5.12,0,0,0,1.23-1.38,2.58,2.58,0,0,0,.19-.37l.06-.1.11,0a4.8,4.8,0,0,0,2-.75A5.07,5.07,0,0,0,33.42,12c.08-.11.15-.23.22-.35l.06-.1h.12a4.83,4.83,0,0,0,2-.56,5.25,5.25,0,0,0,1.44-1.15,3.75,3.75,0,0,0,.26-.33l.07-.1h.27a5.06,5.06,0,0,0,1.92-.39,5.36,5.36,0,0,0,1.54-1,4.12,4.12,0,0,0,.28-.31l.08-.09h.12a4.48,4.48,0,0,0,.57,0,4.88,4.88,0,0,0,1.52-.24,5.2,5.2,0,0,0,1.63-.89,4,4,0,0,0,.31-.27L46,6.21l.11,0a5,5,0,0,0,2.1,0,5,5,0,0,0,1.7-.73l.33-.25.09-.08.12,0a4.78,4.78,0,0,0,2.09.16,5.38,5.38,0,0,0,1.76-.59,2.56,2.56,0,0,0,.35-.22l.1-.07.11,0a5,5,0,0,0,2.07.34,5.26,5.26,0,0,0,1.81-.43l.36-.19.11-.06.1.06a4.92,4.92,0,0,0,2,.52,5.37,5.37,0,0,0,1.83-.28,2.62,2.62,0,0,0,.39-.15l.11-.05.1.06a4.84,4.84,0,0,0,2,.7,5.52,5.52,0,0,0,1.85-.11L68,4.8l.11,0,.09.07a4.86,4.86,0,0,0,1.92.86,5,5,0,0,0,1.85,0,2.57,2.57,0,0,0,.4-.08l.12,0,.09.09A5,5,0,0,0,76.21,7l.41,0,.12,0,.08.08a5,5,0,0,0,1.74,1.19,5.13,5.13,0,0,0,1.82.37h.53l.07.09a4.87,4.87,0,0,0,1.63,1.34,5,5,0,0,0,1.77.52,3,3,0,0,0,.42,0h.11l.07.09A5,5,0,0,0,86.48,12a5.13,5.13,0,0,0,1.73.68,2.7,2.7,0,0,0,.41.06l.12,0,.06.1a4.88,4.88,0,0,0,1.36,1.59,5.08,5.08,0,0,0,1.66.83l.4.1.12,0,0,.11a5.05,5.05,0,0,0,2.81,2.67l.39.13.12,0,0,.11a4.69,4.69,0,0,0,1.07,1.81,5,5,0,0,0,1.49,1.11l.38.16.11,0,0,.11a4.87,4.87,0,0,0,.91,1.9,4.94,4.94,0,0,0,1.38,1.23,2.58,2.58,0,0,0,.37.19l.11.05v.12a4.91,4.91,0,0,0,.74,2,5.27,5.27,0,0,0,1.28,1.35c.11.08.23.15.35.22l.1.06v.12a5,5,0,0,0,.57,2,5.26,5.26,0,0,0,1.15,1.45l.33.25.1.07v.12a5.09,5.09,0,0,0,.39,2.07,5.17,5.17,0,0,0,1,1.54,3.65,3.65,0,0,0,.3.27l.09.08v.13a4.85,4.85,0,0,0,.21,2.09,5.17,5.17,0,0,0,.88,1.63,4.12,4.12,0,0,0,.28.31l.08.08,0,.12a4.92,4.92,0,0,0,0,2.1,5.43,5.43,0,0,0,.74,1.7,2.85,2.85,0,0,0,.25.33l.08.09,0,.12a5,5,0,0,0-.16,2.1,5.11,5.11,0,0,0,.59,1.75,2.56,2.56,0,0,0,.22.35l.07.1,0,.11a4.9,4.9,0,0,0-.34,2.08,5.14,5.14,0,0,0,.43,1.8c.06.12.12.25.19.36l.06.11-.06.1a5,5,0,0,0-.52,2,5.09,5.09,0,0,0,.28,1.84,3.73,3.73,0,0,0,.15.38l0,.11-.07.1a4.94,4.94,0,0,0-.69,2,5.28,5.28,0,0,0,.11,1.85c0,.14.08.27.12.4l0,.11-.07.09a5,5,0,0,0-.86,1.92,5.21,5.21,0,0,0-.06,1.85,2.59,2.59,0,0,0,.09.4l0,.12-.08.09a4.89,4.89,0,0,0-1,1.83,5.17,5.17,0,0,0-.21,1.84,3,3,0,0,0,.05.42l0,.11-.09.08a4.89,4.89,0,0,0-1.18,1.74,5.19,5.19,0,0,0-.38,1.82c0,.13,0,.27,0,.41V76l-.09.07a5.26,5.26,0,0,0-.63.6l-.07.07H104.2Z"/><path class="cls-1" d="M116.77,103.47h-1.06l-.72-.72v-1.07l.72-.72h1.06l.72.72v1.07Zm.47-1.47-.28-.57-.5-.25H116l-.5.25-.28.57v.43l.28.57.5.25h.44l.5-.25.28-.57Zm-.79.84-.16-.49,0,0h-.13l0,0v.34l0,.15h-.36l0-.15v-1l0-.15h.77l.22.22v.32l-.21.21.15.38.1.18Zm0-1,0-.07-.1,0h-.22l0,0v.32l0,0h.22l.1,0,0-.07Z"/></g></g></svg>